<?xml version="1.0" encoding="utf-8"?>
<!-- Generator: Adobe Illustrator 22.0.1, SVG Export Plug-In . SVG Version: 6.00 Build 0)  -->
<svg version="1.1" id="Layer_1" xmlns="http://www.w3.org/2000/svg" xmlns:xlink="http://www.w3.org/1999/xlink" x="0px" y="0px"
	 viewBox="0 0 317.3 302.5" style="enable-background:new 0 0 317.3 302.5;" xml:space="preserve">
<style type="text/css">
	.st0{opacity:0.67;}
	.st1{fill:#4E87C3;}
	.st2{fill:#ECE8EC;}
	.st3{fill:#F5D09F;}
	.st4{fill:#151E1C;}
	.st5{fill:#E9BB88;}
	.st6{fill:#FFD970;}
	.st7{fill:#FFFFFF;}
	.st8{fill:#251F3E;}
	.st9{fill:#312C48;}
	.st10{fill:#44263D;}
	.st11{fill:#FFB100;}
	.st12{fill:#7DADDF;}
	.st13{fill:#93BCEB;}
	.st14{fill:#CCE1F7;}
</style>
<g>
	<g class="st0">
		<ellipse class="st1" cx="164.5" cy="278.8" rx="146.1" ry="9.8"/>
	</g>
	<g>
		<g>
			<g>
				<g>
					<g>
						<path class="st2" d="M222.1,277c0,0,15,2.6,31.1,2.6c14.9,0,29.3-2.6,29.3-2.6l-1.2-2.6c-5.1-11.4-24.6-7-29-18.7h0
							c-3.7,11.8-23.9,7.3-29,18.7L222.1,277z"/>
					</g>
					<g>
						
							<rect x="248.6" y="188.5" transform="matrix(-1 -1.224647e-16 1.224647e-16 -1 505.2499 452.7042)" class="st2" width="8.1" height="75.8"/>
					</g>
					<g>
						<polygon class="st3" points="250.9,258 247.3,250.3 239.6,253.2 241.8,261.1 						"/>
					</g>
					<g>
						<path class="st4" d="M250.9,257.9l1.9,6.3l-8.2,2.6c0,0-18.5,7.8-21.9,4.2c-1.6-1.6,4.4-3.3,8.3-5.8c3.9-2.6,9.9-6.2,9.9-6.2
							S246.2,259.2,250.9,257.9z"/>
					</g>
					<g>
						<polygon class="st3" points="210,269.5 208.8,261 200.6,261.6 200.4,269.8 						"/>
					</g>
					<g>
						<path class="st4" d="M210,269.3v6.6l-8.6,0.2c0,0-19.9,2.2-22.2-2.2c-1-2,5.2-1.9,9.6-3.2c4.4-1.4,11.3-3.1,11.3-3.1
							S205.1,269.2,210,269.3z"/>
					</g>
					<g>
						<g>
							<path class="st5" d="M135.6,124.5l11.4-3.8l10.1,2.5c5.7-1.5,7.6-1.4,19.2-4.4c9.8-2.5,21.1-7.5,21.1-7.5l8.3-14
								c5.4,0.5,16.7,6.4,16.7,6.4s-15.5,21.1-19.9,22.6c-4.4,1.5-34.2,5.1-45.5,3.8c-3.6-0.4-10.6-4.2-10.6-4.2l-9,1.5l-7,4.7
								l-1.2-1l2.8-3L135.6,124.5z"/>
						</g>
						<g>
							<path class="st6" d="M214.2,70.8c0,0,14.5,2.4,14.2,15.4c-0.2,8.5-11.8,24.3-11.8,24.3s-6.4-8.8-14.2-11.3
								c0,0,5.1-15,6.7-19.6C211,73.7,214.2,70.8,214.2,70.8z"/>
						</g>
					</g>
					<g>
						
							<rect x="238.3" y="186.2" transform="matrix(-1 -1.224647e-16 1.224647e-16 -1 505.2498 387.9445)" class="st2" width="28.7" height="15.5"/>
					</g>
					<g>
						<path class="st2" d="M242.1,126.1c-1.4-18.7-2.4-37.4-3-56.2c17.7-7.9,57.3-4.4,61,7.3c3.9,12.4-11,47.8-11,61.1
							c0,13.2,5.2,22.8,5.9,28.7c0.7,5.9-2.9,10.3-2.9,10.3h-45.4C245.5,160.3,243.4,143.2,242.1,126.1z"/>
					</g>
					<g>
						<path class="st7" d="M242.1,126.1c-1.5-19.5-2.5-39-3.1-58.5c19.5-4.6,50.5-0.6,53.7,9.7c3.9,12.4-11,47.8-11,61.1
							c0,13.2,5.2,22.8,5.9,28.7c0.7,5.9-2.9,10.3-2.9,10.3h-38C245.5,160.3,243.4,143.2,242.1,126.1z"/>
					</g>
					<g>
						<path class="st7" d="M206.6,191.4H284c4.4,0,8-3.6,8-8v-6h-85.4V191.4z"/>
					</g>
					<g>
						<path class="st8" d="M222.8,145.3c0,0-40.8,24.3-43.3,34.3c-2.9,12,16.7,82.7,16.7,82.7c4.6,3.1,13.2,2.1,16.3-0.8
							c0,0-15.8-60.6-14-64.6c4.2-9.9,40-21.7,51.3-32.5c11.3-10.8,12.3-21.1,12.3-21.1L222.8,145.3z"/>
					</g>
					<g>
						<path class="st9" d="M269.5,134.4c0,0,13.9,29,1.4,40.8c-5.7,5.4-40,0.5-42,5.9l20.7,68.7c0,0-3.6,2.2-11,5.9
							c0,0-43-75.8-38.6-85.7c4.4-9.8,34.1-15.5,35.6-20.9c1.5-5.4,2.5-14.2,2.5-14.2L269.5,134.4z"/>
					</g>
					<g>
						<path class="st3" d="M210.5,55.8c0.9,3.4,2.5,7.1,5.8,8.2c3,1,6.3-0.6,9-2.3c3.2-1.9,6.5-4,8.6-7.2c3.1-4.8,5.7-10.6,5.3-16.3
							c-0.1-2-3.1-4.5-4.3-6.1c-0.9-1.1-2.2-1.9-3.4-2.5c-3.1-1.5-6.3-2.5-9.7-3c-5.6-0.9-11.8,0.3-12.9,6.5
							C207.6,40.4,208.6,48.7,210.5,55.8z"/>
					</g>
					<g>
						<path class="st10" d="M218.7,42.8c0,0.8,0.7,1.5,1.5,1.5c0.8,0,1.5-0.7,1.5-1.5c0-0.8-0.7-1.5-1.5-1.5
							C219.3,41.2,218.7,41.9,218.7,42.8z"/>
					</g>
					<g>
						<path class="st10" d="M210,42.8c0,0.8,0.7,1.5,1.5,1.5c0.8,0,1.5-0.7,1.5-1.5c0-0.8-0.7-1.5-1.5-1.5
							C210.7,41.2,210,41.9,210,42.8z"/>
					</g>
					<g>
						<g>
							<path class="st10" d="M221.5,48.3c-2.9,0-5.3-2.4-5.3-5.3c0-2.9,2.4-5.3,5.3-5.3c2.9,0,5.3,2.4,5.3,5.3
								C226.9,45.9,224.5,48.3,221.5,48.3z M221.5,38.7c-2.4,0-4.3,1.9-4.3,4.3c0,2.4,1.9,4.3,4.3,4.3c2.4,0,4.3-1.9,4.3-4.3
								C225.9,40.6,223.9,38.7,221.5,38.7z"/>
						</g>
						<g>
							<path class="st10" d="M213.5,40.2l-0.8-0.6c0.7-0.9,1.6-1.4,2.7-1.4c1.2-0.1,2.4,0.4,3.2,1.3l-0.7,0.7c-0.6-0.7-1.6-1-2.5-1
								C214.7,39.2,214,39.5,213.5,40.2z"/>
						</g>
						<g>
							<path class="st10" d="M209.8,48.3c-2.9,0-5.3-2.4-5.3-5.3c0-2.9,2.4-5.3,5.3-5.3c2.9,0,5.3,2.4,5.3,5.3
								C215.1,45.9,212.7,48.3,209.8,48.3z M209.8,38.7c-2.4,0-4.3,1.9-4.3,4.3c0,2.4,1.9,4.3,4.3,4.3c2.4,0,4.3-1.9,4.3-4.3
								C214.1,40.6,212.2,38.7,209.8,38.7z"/>
						</g>
					</g>
					<g>
						<path class="st3" d="M249.9,64.9c0,0-0.1-1.1-4-2.1c-1.1-0.3-2.5-0.3-3.4-1.1c-3.2-2.8-6.1-7.9-7.2-11.8
							c-0.2-0.6-0.3-1.2-0.2-1.7c-2.7,2.2-5.2,4.6-7.7,7.1c-0.8,0.8-6,0.4-5.3,1.5c0.2,0.3,1.5,3.3,2.8,6.2
							c-2.5,1.6-5.2,3.7-5.2,3.7l-3.4,19.1l10.1,5.6c0,0,11.3-2.5,18.6-6.4C252.3,81.3,249.9,64.9,249.9,64.9z"/>
					</g>
					<g>
						<path class="st11" d="M245.9,62.9c0,0-2.9,5.4-10.3,8.6c-7.4,3.2-14-6.4-14-6.4l-7.4,5.7c0,0-0.7,26.1,2.5,40.3
							c3.2,14.2,6.1,34.2,6.1,34.2s3.3,4.8,7.5,5.1c5.1,0.3,12.2-3.7,23.4-1.7c12.4,2.2,21.7,0.3,21.7,0.3s-9.6-46.7-11.8-56
							c-2.2-9.3-7.9-28.4-7.9-28.4S250.8,63.3,245.9,62.9z"/>
					</g>
					<g>
						<g>
							<path class="st2" d="M115.9,132.3h42.9v-3.7h-45.9v0.7C112.9,131,114.3,132.3,115.9,132.3z"/>
						</g>
						<g>
							<path class="st7" d="M129.5,86.4c1.3,0,2.4,0.8,2.9,2l14.6,40.3l-0.9,0.4l0.2,0.7l-33.4-1.1L98.7,90.5
								c-0.7-2,0.7-4.1,2.8-4.1L129.5,86.4z"/>
						</g>
						<g>
							<path class="st2" d="M118.1,110.3c1,3.8,2.9,6.8,4.3,6.8c1.4-0.1,1.7-3.2,0.8-7c-1-3.8-2.9-6.8-4.3-6.8
								C117.4,103.3,117.1,106.5,118.1,110.3z"/>
						</g>
					</g>
					<g>
						<g>
							<path class="st10" d="M215.5,39.5c0.1,2.9-1.1,5.1-2.4,7.7c-0.5,1.1-1,2.7-0.6,3.9c0.1,0.2,0.2,0.3,0.4,0.3
								c1.1,0,2.4-0.8,3.5-1.3c0.4-0.2,0.1-0.9-0.3-0.8c-0.5,0.2-1,0.4-1.5,0.6c-1.1,0.3-1.2,0.5-1.3-0.7c-0.1-1.4,1.2-2.9,1.7-4.2
								c0.8-1.8,1-3.7,0.9-5.7C216,39.2,215.5,39.1,215.5,39.5L215.5,39.5z"/>
						</g>
					</g>
					<g>
						<g>
							<path class="st10" d="M219.4,36.8c0.6,0.2,1.2,0.2,1.9,0.2c0.7,0.1,1.3,0.1,2,0.2c0.8,0.1,1.1-1.4,0.2-1.5
								c-1.2-0.2-2.8-0.5-4-0.2C218.8,35.7,218.9,36.6,219.4,36.8L219.4,36.8z"/>
						</g>
					</g>
					<g>
						<g>
							<path class="st10" d="M209.7,36.8c1,0.2,2.1,0,3.2,0.1c1,0.1,1-1.4,0-1.5c-1.1-0.1-2.4-0.1-3.3,0.6
								C209.3,36.1,209.2,36.7,209.7,36.8L209.7,36.8z"/>
						</g>
					</g>
					<g>
						<g>
							<path class="st10" d="M226.4,42c1-0.1,2-0.5,3-0.8c1-0.3,2.1-0.5,3-1.1c0.3-0.2,0.2-0.7-0.2-0.7c-1,0-2.1,0.4-3.1,0.8
								c-1,0.3-2,0.6-2.9,1.2C226,41.6,226.1,42.1,226.4,42L226.4,42z"/>
						</g>
					</g>
					<g>
						<g>
							<path class="st9" d="M218.7,34.3c-4.8-0.3-9.8-0.3-14-2.5c-2-1.1-3.8-2.7-4.2-4.9c-0.4-2.1,1.2-4.6,3.5-4.7
								c0.5,0,1,0,1.4-0.2c0.5-0.3,0.6-1,0.7-1.5c0.5-3.8,3.7-7.6,7.8-7.5c3.4,0.1,6.5,2.7,9.7,1.9c1-0.2,1.9-0.8,2.8-1.2
								c2.8-1.3,6-1.8,9-1.2c3.2,0.6,6.6,3.1,5.8,6.1c-0.3,1-1,1.8-1.2,2.8c-0.7,3.6,5,5.3,6.1,8.8c1,3.2-2.1,6.3-1.9,9.6
								c0.1,1.8,1.2,4-0.2,5.3c-0.7,0.7-2,0.9-2.5,1.7c-0.7,1.2,0.6,2.5,0.7,3.8c0.1,1.6-1.7,3-3.5,2.9c-1.8-0.1-3.2-1.5-3.9-3
								c-0.7-1.5-0.8-3.2-0.7-4.9c3-0.8,4.9-5.8,2-7.1c-1.5-0.7-3.1,1-3.7,2.4C229.7,36.1,224.9,34.3,218.7,34.3z"/>
						</g>
						<g>
							<path class="st9" d="M230.9,42c-1,2.3-2,4.6-3,6.8c-0.4,0.9-0.8,1.9-1.6,2.5c-1.2,1-2.9,1.1-4.3,0.7c-1.5-0.3-4.3-1.1-5.9-1
								c-3.5,0.3-6,2-6.2,2.4c-0.4,0.8,0.2,2.2,0.2,3.1c0,1-0.1,2-0.7,2.9c-0.3,0.6-0.8,1.1-1.3,1.5c-1.2,1.3-2.3,2.9-2.2,4.7
								c0.1,2.5,2.4,4.2,4.4,5.5c1.3,0.9,2.7,1.8,4.2,2c1,0.2,2.1,0.1,3.2,0c2.2-0.2,4.4-0.4,6.5-1c2.1-0.6,4.1-1.8,5.4-3.5
								c1.1-1.5,1.7-3.3,2.2-5.2c0.8-2.9,1.7-5.9,1.8-8.9c0.1-2.8-0.4-5.7-0.7-8.5c-0.3-2.5-0.3-5-0.2-7.4c0-0.3,0.1-1-0.4-1.1
								c-0.5-0.1-0.3,0.7-0.4,1C231.8,39.8,231.4,40.9,230.9,42z"/>
						</g>
						<g>
							<path class="st3" d="M212.6,55c-0.5,1-0.2,2.3,0.6,3.1c0.4,0.4,0.9,0.6,1.4,0.6c0.5-0.1,1-0.5,0.9-1c0-0.2-0.1-0.4,0-0.5
								c0.1-0.2,0.3-0.2,0.5-0.2c0.7,0,1.5,0,1.8,0.6c0.1,0.2,0.1,0.4,0.2,0.6c0.3,0.4,0.8,0.5,1.3,0.4c0.7-0.1,1.4-0.2,2.1-0.5
								c0.3-0.1,0.7-0.3,0.9-0.5c0.2-0.3,0.4-0.7,0.3-1c-0.1-0.3-0.4-0.5-0.6-0.6C219.9,54.3,214.4,51.3,212.6,55z"/>
						</g>
						<g>
							<g>
								<path class="st10" d="M213.7,55c1.1,0.7,3.5,0.7,4.5-0.1c0.3-0.2,0.2-0.6-0.2-0.6c-0.7,0-1.4,0.3-2.1,0.3
									c-0.7,0-1.4-0.1-2.1-0.1C213.6,54.5,213.5,54.8,213.7,55L213.7,55z"/>
							</g>
						</g>
					</g>
				</g>
				<g>
					<path class="st7" d="M243.7,181.6c0,0-1.4-39.6,7.4-42.2c8.8-2.6,28.3-1.9,28.3-1.9l1.8,7.1c0,0-25.5-1.9-29,3
						c-3.5,4.9,0,34.4,0,34.4L243.7,181.6z"/>
				</g>
			</g>
			<g>
				<g>
					<path class="st3" d="M172.4,123.3l11.4-3.8l10.1,2.5c5.7-1.5,7.6-1.4,19.2-4.4c9.8-2.5,21.1-7.5,21.1-7.5l12.8-19.1
						c5.4,0.5,12.3,11.5,12.3,11.5s-15.5,21.1-19.9,22.6c-4.4,1.5-38.1,5.4-49.4,4.1c-3.6-0.4-9.9-4.3-9.9-4.3l-5.7,1.3l-7,4.7
						l-1.2-1l2.8-3L172.4,123.3z"/>
				</g>
				<g>
					<path class="st6" d="M255.7,64.6c0,0,15.2,2.5,15,15.5c-0.2,8.5-11.8,24.3-11.8,24.3s-6.4-8.8-14.2-11.3c0,0,6.1-12,6.6-16.9
						C251.8,71.2,255.7,64.6,255.7,64.6z"/>
				</g>
				<g>
					<g>
						<path class="st7" d="M150,132.3h42.9v-3.7h-45.9v0.7C146.9,131,148.3,132.3,150,132.3z"/>
					</g>
					<g>
						
							<rect x="173.3" y="129.8" transform="matrix(-1 -1.224647e-16 1.224647e-16 -1 361.8901 260.7809)" class="st2" width="15.3" height="1.1"/>
					</g>
					<g>
						
							<rect x="168.7" y="129.8" transform="matrix(-1 -1.224647e-16 1.224647e-16 -1 339.717 260.7809)" class="st2" width="2.3" height="1.1"/>
					</g>
				</g>
			</g>
		</g>
		<g>
			<g>
				<g>
					<polygon class="st7" points="76.8,116.8 74.7,101.6 75.5,98.8 77.1,101.1 79,116.6 					"/>
				</g>
				<g>
					<polygon class="st7" points="86.8,117.8 89,102.6 90.4,100.1 91.4,102.8 89,118.3 					"/>
				</g>
				<g>
					<polygon class="st7" points="79.8,119 80,103.4 81.3,100.9 82.5,103.4 82.3,119 					"/>
				</g>
			</g>
			<g>
				<polygon class="st6" points="89.1,134 77.3,134 75.2,114.5 90.6,114.5 				"/>
			</g>
		</g>
		<g>
			<g>
				<polygon class="st7" points="241,281.6 243.9,281.6 212.1,143.4 206.1,143.4 				"/>
			</g>
			<g>
				<polygon class="st7" points="155,280.1 157.8,280.1 178.2,143.4 172.3,143.4 				"/>
			</g>
			<g>
				<polygon class="st7" points="112.2,280.9 115,280.9 92.6,143.4 86.6,143.4 				"/>
			</g>
			<g>
				<polygon class="st7" points="33.1,279.5 35.9,279.5 62.9,143.4 56.9,143.4 				"/>
			</g>
			<g>
				
					<rect x="80" y="137.2" transform="matrix(-1 -1.224647e-16 1.224647e-16 -1 309.0249 280.5667)" class="st12" width="149" height="6.2"/>
			</g>
			<g>
				
					<rect x="32.2" y="137.2" transform="matrix(-1 -1.224647e-16 1.224647e-16 -1 201.8783 280.5667)" class="st13" width="137.4" height="6.2"/>
			</g>
			<g>
				
					<rect x="83.3" y="132" transform="matrix(-1 -1.224647e-16 1.224647e-16 -1 326.007 272.3218)" class="st13" width="159.3" height="8.3"/>
			</g>
			<g>
				
					<rect x="11.4" y="132" transform="matrix(-1 -1.224647e-16 1.224647e-16 -1 170.4546 272.3218)" class="st14" width="147.7" height="8.3"/>
			</g>
		</g>
	</g>
</g>
</svg>
